<?xml version="1.0" encoding="utf-8"?>
<!-- Generator: Adobe Illustrator 24.0.2, SVG Export Plug-In . SVG Version: 6.00 Build 0)  -->
<svg version="1.1" id="图层_1" xmlns="http://www.w3.org/2000/svg" xmlns:xlink="http://www.w3.org/1999/xlink" x="0px" y="0px"
	 viewBox="0 0 24 24" style="enable-background:new 0 0 24 24;" xml:space="preserve">
<path d="M1.92,14.77H0l1.32-7.47h1.92l-0.52,2.93h0.96l2.19-2.93h2.03l-2.75,3.68l1.41,3.79H4.53l-1.12-3.04H2.45L1.92,14.77z
	 M9.99,14.77c-0.49,0.07-0.95,0.11-1.37,0.11s-0.76-0.15-1-0.44c-0.24-0.29-0.32-0.68-0.23-1.16l1.05-5.97h1.87l-1,5.71
	c-0.01,0.11,0,0.2,0.05,0.27c0.05,0.07,0.15,0.11,0.25,0.11h0.64L9.99,14.77z M16.77,13.17c-0.09,0.53-0.32,0.95-0.68,1.25
	c-0.36,0.31-0.8,0.45-1.33,0.45h-2.45c-0.53,0-0.92-0.15-1.17-0.45c-0.25-0.31-0.32-0.72-0.23-1.25l0.43-2.45
	c0.09-0.53,0.32-0.95,0.68-1.25c0.36-0.31,0.8-0.45,1.33-0.45h2.45c0.53,0,0.92,0.15,1.17,0.45c0.25,0.31,0.32,0.72,0.23,1.25
	L16.77,13.17z M15.32,10.88c0.05-0.28-0.07-0.43-0.35-0.43h-1.28c-0.28,0-0.45,0.15-0.51,0.43l-0.37,2.13
	c-0.05,0.28,0.07,0.43,0.35,0.43h1.28c0.28,0,0.45-0.15,0.51-0.43L15.32,10.88z M21.21,14.35c-0.72,0.15-1.33,0.21-1.85,0.21h-0.37
	c-0.48,0-0.84-0.15-1.08-0.44c-0.24-0.29-0.32-0.68-0.23-1.16l0.37-2.13c0.09-0.53,0.32-0.95,0.68-1.25
	c0.36-0.31,0.8-0.45,1.33-0.45H24l-1.05,5.97c-0.08,0.48-0.29,0.87-0.64,1.16c-0.35,0.29-0.76,0.44-1.24,0.44
	c-1.12,0-2.35-0.07-3.69-0.21l0.24-1.39c1.33,0.11,2.36,0.16,3.07,0.16c0.11,0,0.2-0.04,0.28-0.11c0.08-0.07,0.13-0.16,0.16-0.27
	L21.21,14.35z M20.15,13.12c0.45,0,0.88-0.04,1.29-0.11l0.43-2.45h-1.49c-0.28,0-0.45,0.15-0.51,0.43l-0.31,1.76
	c-0.01,0.11,0,0.2,0.07,0.27c0.05,0.07,0.15,0.11,0.25,0.11C19.88,13.12,20.15,13.12,20.15,13.12z"/>
</svg>
